<svg width="18" height="16" viewBox="0 0 18 16" fill="none" xmlns="http://www.w3.org/2000/svg">
<path d="M0 3.39394H1.93939V2.53874L3.12194 3.12994C3.25657 3.19726 3.40503 3.23231 3.55556 3.23231C3.70608 3.23231 3.85454 3.19726 3.98917 3.12994L6.14142 2.0539L8.29366 3.12994C8.42829 3.19726 8.57675 3.23231 8.72728 3.23231C8.8778 3.23231 9.02626 3.19726 9.16089 3.12994L11.3131 2.0539L13.4654 3.12994C13.6 3.19726 13.7485 3.23231 13.899 3.23231C14.0495 3.23231 14.198 3.19726 14.3326 3.12994L15.5152 2.53874V3.39394H17.4546V0.969692C17.4545 0.804408 17.4123 0.641869 17.3318 0.497507C17.2513 0.353145 17.1353 0.231754 16.9947 0.144857C16.8541 0.05796 16.6936 0.00844382 16.5285 0.00100985C16.3634 -0.00642411 16.1991 0.0284695 16.0512 0.102379L13.899 1.17842L11.7468 0.102379C11.6121 0.0350515 11.4637 0 11.3131 0C11.1626 0 11.0142 0.0350515 10.8795 0.102379L8.72728 1.17842L6.57503 0.102379C6.4404 0.0350515 6.29194 0 6.14142 0C5.99089 0 5.84243 0.0350515 5.7078 0.102379L3.55556 1.17842L1.40331 0.102379C1.25548 0.0284695 1.0912 -0.00642411 0.926081 0.00100985C0.760964 0.00844382 0.600488 0.05796 0.45989 0.144857C0.319292 0.231754 0.203237 0.353145 0.122749 0.497507C0.0422598 0.641869 6.16517e-06 0.804408 0 0.969692V3.39394Z" fill="#9F9DAB"/>
<path d="M0 3.39394V15.0303C6.16517e-06 15.1956 0.0422585 15.3581 0.122749 15.5025C0.203237 15.6469 0.319292 15.7682 0.45989 15.8551C0.600488 15.942 0.760964 15.9916 0.926081 15.999C1.0912 16.0064 1.25548 15.9715 1.40331 15.8976L3.55556 14.8216L5.7078 15.8976C5.84243 15.9649 5.99089 16 6.14142 16C6.29194 16 6.4404 15.9649 6.57503 15.8976L8.72728 14.8216L10.8795 15.8976C11.0142 15.9649 11.1626 16 11.3131 16C11.4637 16 11.6121 15.9649 11.7468 15.8976L13.899 14.8216L16.0512 15.8976C16.1991 15.9715 16.3634 16.0064 16.5285 15.999C16.6936 15.9916 16.8541 15.942 16.9947 15.8551C17.1353 15.7682 17.2513 15.6469 17.3318 15.5025C17.4123 15.3581 17.4545 15.1956 17.4546 15.0303V3.39394H15.5152V13.4613L14.3326 12.8701C14.198 12.8027 14.0495 12.7677 13.899 12.7677C13.7485 12.7677 13.6 12.8027 13.4654 12.8701L11.3131 13.9461L9.16089 12.8701C9.02626 12.8027 8.8778 12.7677 8.72728 12.7677C8.57675 12.7677 8.42829 12.8027 8.29366 12.8701L6.14142 13.9461L3.98917 12.8701C3.85454 12.8027 3.70608 12.7677 3.55556 12.7677C3.40503 12.7677 3.25657 12.8027 3.12194 12.8701L1.93939 13.4613V3.39394H0Z" fill="#9F9DAB"/>
<path d="M3.83957 5.61735C3.65772 5.79921 3.55556 6.04585 3.55556 6.30303C3.55556 6.56021 3.65772 6.80686 3.83957 6.98871C4.02143 7.17057 4.26807 7.27273 4.52525 7.27273H12.9293C13.1865 7.27273 13.4331 7.17057 13.615 6.98871C13.7968 6.80686 13.899 6.56021 13.899 6.30303C13.899 6.04585 13.7968 5.79921 13.615 5.61735C13.4331 5.4355 13.1865 5.33333 12.9293 5.33333H4.52525C4.26807 5.33333 4.02143 5.4355 3.83957 5.61735Z" fill="#9F9DAB"/>
<path d="M12.9293 10.5051H4.52525C4.26807 10.5051 4.02143 10.4029 3.83957 10.221C3.65772 10.0392 3.55556 9.79254 3.55556 9.53536C3.55556 9.27818 3.65772 9.03153 3.83957 8.84968C4.02143 8.66782 4.26807 8.56566 4.52525 8.56566H12.9293C13.1865 8.56566 13.4331 8.66782 13.615 8.84968C13.7968 9.03153 13.899 9.27818 13.899 9.53536C13.899 9.79254 13.7968 10.0392 13.615 10.221C13.4331 10.4029 13.1865 10.5051 12.9293 10.5051Z" fill="#9F9DAB"/>
</svg>
