<svg width="16" height="17" viewBox="0 0 16 17" fill="none" xmlns="http://www.w3.org/2000/svg">
<path d="M8 11.886C9.8729 11.886 11.396 10.3629 11.396 8.49002C11.396 6.61712 9.8729 5.09401 8 5.09401C6.1271 5.09401 4.60399 6.61712 4.60399 8.49002C4.60399 10.3629 6.1271 11.886 8 11.886ZM8 6.79202C8.92032 6.79202 9.698 7.5697 9.698 8.49002C9.698 9.41034 8.92032 10.188 8 10.188C7.07968 10.188 6.302 9.41034 6.302 8.49002C6.302 7.5697 7.07968 6.79202 8 6.79202Z" fill="#9F9DAB"/>
<path d="M0.227388 12.0015L1.07639 13.4703C1.52721 14.2488 2.61223 14.5409 3.39416 14.09L3.84329 13.8302C4.33447 14.2166 4.87602 14.5342 5.45299 14.7743V15.282C5.45299 16.2185 6.21455 16.98 7.151 16.98H8.849C9.78545 16.98 10.547 16.2185 10.547 15.282V14.7743C11.1238 14.5342 11.6653 14.2169 12.1567 13.8311L12.6058 14.0909C13.3895 14.5409 14.4719 14.2505 14.9245 13.4703L15.7726 12.0023C15.9976 11.6124 16.0586 11.1491 15.9423 10.7142C15.8259 10.2793 15.5417 9.90834 15.152 9.68287L14.7232 9.43496C14.8144 8.80887 14.8144 8.17287 14.7232 7.54678L15.152 7.29887C15.5415 7.07323 15.8256 6.7023 15.9419 6.26747C16.0583 5.83263 15.9974 5.36939 15.7726 4.9794L14.9245 3.51147C14.4736 2.73039 13.3895 2.43748 12.6058 2.89L12.1567 3.1498C11.6655 2.76342 11.124 2.4458 10.547 2.20571V1.698C10.547 0.761555 9.78545 0 8.849 0H7.151C6.21455 0 5.45299 0.761555 5.45299 1.698V2.20571C4.87622 2.44584 4.33471 2.76315 3.84329 3.14895L3.39416 2.88915C2.60969 2.43833 1.52636 2.73039 1.07554 3.51062L0.227388 4.97855C0.00238709 5.36849 -0.0586314 5.8318 0.0577356 6.26671C0.174103 6.70161 0.458339 7.07254 0.848008 7.29802L1.27675 7.54593C1.18526 8.17171 1.18526 8.80748 1.27675 9.43326L0.848008 9.68117C0.458453 9.90697 0.174349 10.278 0.0580057 10.713C-0.058338 11.148 0.00257579 11.6114 0.227388 12.0015ZM3.05117 9.65994C2.9553 9.27734 2.90655 8.88445 2.90599 8.49002C2.90599 8.09778 2.95523 7.70384 3.05032 7.32009C3.0951 7.14123 3.08037 6.95265 3.00837 6.78291C2.93636 6.61317 2.81101 6.47152 2.65129 6.3794L1.69786 5.82755L2.54516 4.35962L3.51727 4.92166C3.6758 5.0134 3.85981 5.05123 4.04167 5.0295C4.22353 5.00776 4.39344 4.92762 4.52588 4.80111C5.10025 4.25482 5.79288 3.84837 6.5499 3.61335C6.7238 3.56026 6.87606 3.45275 6.98427 3.30663C7.09248 3.16052 7.15092 2.98353 7.151 2.80171V1.698H8.849V2.80171C8.84908 2.98353 8.90752 3.16052 9.01573 3.30663C9.12394 3.45275 9.2762 3.56026 9.4501 3.61335C10.207 3.8487 10.8995 4.25511 11.4741 4.80111C11.6067 4.92737 11.7766 5.00735 11.9584 5.02908C12.1402 5.05081 12.3241 5.01313 12.4827 4.92166L13.454 4.36047L14.303 5.8284L13.3487 6.3794C13.1891 6.47162 13.0638 6.61329 12.9918 6.78299C12.9198 6.9527 12.905 7.14123 12.9497 7.32009C13.0448 7.70384 13.094 8.09778 13.094 8.49002C13.094 8.88141 13.0448 9.27535 12.9488 9.65994C12.9043 9.8389 12.9192 10.0275 12.9913 10.1972C13.0635 10.3669 13.1889 10.5085 13.3487 10.6006L14.3021 11.1516L13.4548 12.6196L12.4827 12.0584C12.3242 11.9665 12.1402 11.9286 11.9583 11.9503C11.7764 11.9721 11.6065 12.0523 11.4741 12.1789C10.8997 12.7252 10.2071 13.1317 9.4501 13.3667C9.2762 13.4198 9.12394 13.5273 9.01573 13.6734C8.90752 13.8195 8.84908 13.9965 8.849 14.1783L8.8507 15.282H7.151V14.1783C7.15092 13.9965 7.09248 13.8195 6.98427 13.6734C6.87606 13.5273 6.7238 13.4198 6.5499 13.3667C5.79302 13.1313 5.10047 12.7249 4.52588 12.1789C4.3937 12.0519 4.22368 11.9715 4.04165 11.9499C3.85962 11.9283 3.67551 11.9667 3.51727 12.0592L2.54601 12.6213L1.69701 11.1533L2.65129 10.6006C2.81106 10.5085 2.93651 10.3669 3.00866 10.1972C3.0808 10.0275 3.09573 9.8389 3.05117 9.65994Z" fill="#9F9DAB"/>
</svg>
