<svg width="188" height="49" viewBox="0 0 188 49" fill="none" xmlns="http://www.w3.org/2000/svg">
<path fill-rule="evenodd" clip-rule="evenodd" d="M17 33V0H34.5C43.6127 0 51 7.3873 51 16.5C51 25.6127 43.6127 33 34.5 33H17Z" fill="#EC4483"/>
<path fill-rule="evenodd" clip-rule="evenodd" d="M34 16H0V32H17V49H34V16Z" fill="#67E197"/>
<rect x="17" y="16" width="17" height="17" fill="#0400E0"/>
<path d="M67.27 23.57V17.48H70.6C72.97 17.48 74.02 18.62 74.02 20.54C74.02 22.4 72.97 23.57 70.6 23.57H67.27ZM78.34 20.54C78.34 16.91 75.82 14.06 70.78 14.06H63.07V35H67.27V26.96H70.78C76.18 26.96 78.34 23.72 78.34 20.54ZM78.292 26.63C78.292 31.82 81.652 35.27 85.852 35.27C88.492 35.27 90.382 34.01 91.372 32.57V35H95.602V18.38H91.372V20.75C90.382 19.37 88.552 18.11 85.882 18.11C81.652 18.11 78.292 21.44 78.292 26.63ZM91.372 26.69C91.372 29.84 89.272 31.58 86.962 31.58C84.712 31.58 82.582 29.78 82.582 26.63C82.582 23.48 84.712 21.8 86.962 21.8C89.272 21.8 91.372 23.54 91.372 26.69ZM104.834 29.99L100.544 18.38H95.834L102.494 34.58L98.894 42.86H103.364L113.654 18.38H109.184L104.834 29.99ZM114.628 29.84C114.628 33.65 116.758 35 119.938 35H122.578V31.46H120.628C119.308 31.46 118.858 30.98 118.858 29.87V21.83H122.578V18.38H118.858V14.27H114.628V18.38H112.648V21.83H114.628V29.84ZM123.649 35H127.849V18.38H123.649V35ZM125.779 16.4C127.249 16.4 128.359 15.32 128.359 13.94C128.359 12.56 127.249 11.48 125.779 11.48C124.279 11.48 123.199 12.56 123.199 13.94C123.199 15.32 124.279 16.4 125.779 16.4ZM137.189 21.56C139.349 21.56 141.089 22.94 141.149 25.13H133.259C133.589 22.85 135.179 21.56 137.189 21.56ZM145.079 29.78H140.549C140.009 30.89 139.019 31.79 137.219 31.79C135.119 31.79 133.439 30.41 133.229 27.95H145.379C145.469 27.41 145.499 26.87 145.499 26.33C145.499 21.38 142.109 18.11 137.309 18.11C132.389 18.11 128.969 21.44 128.969 26.69C128.969 31.91 132.479 35.27 137.309 35.27C141.419 35.27 144.179 32.84 145.079 29.78ZM158.254 35H162.454V25.25C162.454 20.66 159.694 18.14 155.824 18.14C153.694 18.14 151.894 19.04 150.814 20.45V18.38H146.614V35H150.814V25.82C150.814 23.15 152.284 21.71 154.564 21.71C156.784 21.71 158.254 23.15 158.254 25.82V35ZM165.158 29.84C165.158 33.65 167.288 35 170.468 35H173.108V31.46H171.158C169.838 31.46 169.388 30.98 169.388 29.87V21.83H173.108V18.38H169.388V14.27H165.158V18.38H163.178V21.83H165.158V29.84Z" fill="black"/>
</svg>
