<svg width="18" height="18" viewBox="0 0 18 18" fill="none" xmlns="http://www.w3.org/2000/svg">
<path d="M7 11L12.2 5.8M1 17V13L5 9L9 13L5 17H1ZM13 1L17 5L16.6 5.4C16.3377 5.66317 16.0259 5.87198 15.6827 6.01445C15.3395 6.15693 14.9716 6.23027 14.6 6.23027C14.2284 6.23027 13.8605 6.15693 13.5173 6.01445C13.1741 5.87198 12.8623 5.66317 12.6 5.4C12.3368 5.13765 12.128 4.82594 11.9855 4.48274C11.8431 4.13954 11.7697 3.7716 11.7697 3.4C11.7697 3.0284 11.8431 2.66046 11.9855 2.31726C12.128 1.97405 12.3368 1.66235 12.6 1.4L13 1Z" stroke="#9F9DAB" stroke-width="2" stroke-linecap="round" stroke-linejoin="round"/>
</svg>
